HIERARCHY
ROOT Hips
{
	OFFSET 0.000000 0.000000 0.000000
	CHANNELS 6 Xposition Yposition Zposition Zrotation Yrotation Xrotation 
	JOINT LowerBack
	{
		OFFSET 0.000000 0.000000 0.000000
		CHANNELS 3 Zrotation Yrotation Xrotation
		JOINT Spine
		{
			OFFSET 0.028270 2.035590 -0.193380
			CHANNELS 3 Zrotation Yrotation Xrotation
			JOINT Spine1
			{
				OFFSET 0.056720 2.048850 -0.042750
				CHANNELS 3 Zrotation Yrotation Xrotation
				JOINT Neck
				{
					OFFSET 0.000000 0.000000 0.000000
					CHANNELS 3 Zrotation Yrotation Xrotation
					JOINT Neck1
					{
						OFFSET -0.054170 1.746240 0.172020
						CHANNELS 3 Zrotation Yrotation Xrotation
						JOINT Head
						{
							OFFSET 0.104070 1.761360 -0.123970
							CHANNELS 3 Zrotation Yrotation Xrotation
							End Site
							{
								OFFSET 0.000000 0.000000 0.000000
							}
						}
					}
				}
				JOINT LeftShoulder
				{
					OFFSET 0.000000 0.000000 0.000000
					CHANNELS 3 Zrotation Yrotation Xrotation
					JOINT LeftArm
					{
						OFFSET 3.362410 1.200890 -0.311210
						CHANNELS 3 Zrotation Yrotation Xrotation
						JOINT LeftForeArm
						{
							OFFSET 4.983000 -0.000000 -0.000000
							CHANNELS 3 Zrotation Yrotation Xrotation
							JOINT LeftHand
							{
								OFFSET 3.483560 -0.000000 -0.000000
								CHANNELS 3 Zrotation Yrotation Xrotation
								JOINT LeftFingerBase
								{
									OFFSET 0.000000 0.000000 0.000000
									CHANNELS 3 Zrotation Yrotation Xrotation
									JOINT LeftHandIndex1
									{
										OFFSET 0.715260 -0.000000 -0.000000
										CHANNELS 3 Zrotation Yrotation Xrotation
										End Site
										{
											OFFSET 0.000000 0.000000 0.000000
										}
									}
								}
								JOINT LThumb
								{
									OFFSET 0.000000 0.000000 0.000000
									CHANNELS 3 Zrotation Yrotation Xrotation
									End Site
									{
										OFFSET 0.000000 0.000000 0.000000
									}
								}
							}
						}
					}
				}
				JOINT RightShoulder
				{
					OFFSET 0.000000 0.000000 0.000000
					CHANNELS 3 Zrotation Yrotation Xrotation
					JOINT RightArm
					{
						OFFSET -3.136600 1.374050 -0.404650
						CHANNELS 3 Zrotation Yrotation Xrotation
						JOINT RightForeArm
						{
							OFFSET -5.241900 -0.000000 -0.000000
							CHANNELS 3 Zrotation Yrotation Xrotation
							JOINT RightHand
							{
								OFFSET -3.444170 -0.000000 -0.000000
								CHANNELS 3 Zrotation Yrotation Xrotation
								JOINT RightFingerBase
								{
									OFFSET 0.000000 0.000000 0.000000
									CHANNELS 3 Zrotation Yrotation Xrotation
									JOINT RightHandIndex1
									{
										OFFSET -0.622530 -0.000000 -0.000000
										CHANNELS 3 Zrotation Yrotation Xrotation
										End Site
										{
											OFFSET 0.000000 0.000000 0.000000
										}
									}
								}
								JOINT RThumb
								{
									OFFSET 0.000000 0.000000 0.000000
									CHANNELS 3 Zrotation Yrotation Xrotation
									End Site
									{
										OFFSET 0.000000 0.000000 0.000000
									}
								}
							}
						}
					}
				}
			}
		}
	}
}
}
MOTION
Frames: 14
Frame Time: 0.008333
0.714299 16.614397 0.217246 51.320467 78.938848 67.623718 1.807448 -5.500349 -5.683753 -0.012569 -5.858528 -3.693587 -7.022267 -5.883102 1.051341 5.356175 -14.034291 -9.194390 -4.354289 -0.317292 -0.452471 0.000000 0.000000 0.000000 -0.069852 7.793753 1.117709 -53.584629 -6.657616 16.632788 -179.726369 -86.400413 179.987258 1.808372 3.725125 0.061250 -0.141013 0.307090 -0.000000 0.000000 0.000000 0.000000 0.000000 0.000000 0.000000 13.595481 -10.776212 -0.554948 70.189615 -1.006614 -13.540158 0.432732 75.625912 -0.018129 -5.772729 7.786094 -0.416344 0.099231 -0.341840 0.000000 0.000000 0.000000 0.000000 0.000000 0.000000 0.000000 
0.899927 16.612988 0.309179 54.045767 79.320775 70.051319 1.795234 -5.634347 -5.571849 -0.028220 -5.988445 -3.660749 -7.071856 -6.018330 1.100227 5.491624 -13.806658 -9.070843 -4.421877 -0.323384 -0.419319 0.000000 0.000000 0.000000 -0.229788 7.730522 1.081886 -53.880177 -6.906887 15.557344 -179.885854 -88.089508 179.980294 2.833734 4.085373 0.101982 -0.156519 0.298111 -0.000000 0.000000 0.000000 0.000000 0.000000 0.000000 0.000000 14.099423 -10.883053 -0.597604 71.116421 -0.520468 -15.770504 0.434981 73.525212 -0.034619 -9.430680 7.297770 -0.638088 0.134133 -0.332648 -0.000000 0.000000 0.000000 0.000000 0.000000 0.000000 0.000000 
1.084668 16.618302 0.404167 57.091415 79.691253 72.832288 1.746687 -5.753493 -5.483422 -0.049435 -6.101131 -3.628326 -7.107418 -6.135993 1.165925 5.647009 -13.632455 -8.949581 -4.473794 -0.328299 -0.385436 0.000000 0.000000 0.000000 -0.372847 7.665730 1.024743 -54.208779 -7.186643 14.595194 179.957654 -89.834102 179.973104 3.941802 4.439889 0.152191 -0.171272 0.289052 -0.000000 0.000000 0.000000 0.000000 0.000000 0.000000 0.000000 14.576004 -11.058194 -0.631154 71.967660 -0.013126 -17.671505 0.411325 71.497684 -0.052219 -13.427337 6.468931 -0.808853 0.169247 -0.318793 -0.000000 0.000000 0.000000 0.000000 0.000000 0.000000 0.000000 
1.268681 16.629436 0.502488 60.309851 80.010376 75.825059 1.649655 -5.850722 -5.422507 -0.079269 -6.188837 -3.597439 -7.131139 -6.228090 1.245465 5.818373 -13.498706 -8.831239 -4.508869 -0.331954 -0.351179 0.000000 0.000000 0.000000 -0.503298 7.604114 0.951362 -54.527961 -7.478228 13.760312 -0.188523 -88.419513 -0.033907 5.076377 4.765607 0.209177 -0.184546 0.280052 -0.000000 0.000000 0.000000 0.000000 0.000000 0.000000 0.000000 15.008033 -11.272722 -0.651426 72.748589 0.478706 -19.194842 0.368020 69.572110 -0.069580 -17.609849 5.338640 -0.883033 0.202555 -0.300521 -0.000000 0.000000 0.000000 0.000000 0.000000 0.000000 0.000000 
1.451964 16.645649 0.603903 63.445083 80.249320 78.779740 1.500732 -5.918727 -5.389581 -0.118973 -6.244084 -3.568932 -7.145234 -6.286924 1.334985 6.001201 -13.389986 -8.716589 -4.526739 -0.334309 -0.317088 0.000000 0.000000 0.000000 -0.629984 7.556603 0.869225 -54.799997 -7.768783 13.064503 -0.319190 -86.718833 -0.040230 6.172835 5.046671 0.268746 -0.195836 0.271172 -0.000000 0.000000 0.000000 0.000000 0.000000 0.000000 0.000000 15.381381 -11.493521 -0.656312 73.458686 0.930937 -20.301000 0.314528 67.758040 -0.085137 -21.775686 3.978123 -0.826621 0.231740 -0.278653 -0.000000 0.000000 0.000000 0.000000 0.000000 0.000000 0.000000 
1.634369 16.666412 0.707793 66.185391 80.395360 81.388569 1.305181 -5.951154 -5.382075 -0.167924 -6.260838 -3.544041 -7.151678 -6.306419 1.427507 6.189473 -13.287024 -8.603840 -4.528181 -0.335429 -0.283036 0.000000 0.000000 0.000000 -0.764123 7.530281 0.787517 -54.993984 -8.041986 12.512523 -0.431363 -85.106833 -0.045486 7.164765 5.274976 0.325898 -0.204818 0.262430 -0.000000 0.000000 0.000000 0.000000 0.000000 0.000000 0.000000 15.684993 -11.683566 -0.646145 74.091375 1.326640 -20.965087 0.261265 66.050160 -0.097562 -25.702695 2.484084 -0.629809 0.254857 -0.254636 -0.000000 0.000000 0.000000 0.000000 0.000000 0.000000 0.000000 
1.815587 16.691202 0.813687 68.262457 80.439429 83.385364 1.060017 -5.945237 -5.396172 -0.227024 -6.235862 -3.523976 -7.152220 -6.283477 1.514620 6.379009 -13.167958 -8.489301 -4.514844 -0.335462 -0.248339 0.000000 0.000000 0.000000 -0.912833 7.530024 0.715867 -55.084747 -8.282322 12.106032 -0.524096 -83.617547 -0.049393 7.992066 5.450756 0.375641 -0.211366 0.253792 -0.000000 0.000000 0.000000 0.000000 0.000000 0.000000 0.000000 15.915846 -11.805349 -0.624292 74.637468 1.653263 -21.181582 0.217524 64.433861 -0.106121 -29.177190 0.966411 -0.313289 0.270930 -0.230276 -0.000000 0.000000 0.000000 0.000000 0.000000 0.000000 0.000000 
1.995151 16.719749 0.920854 69.475988 80.388090 84.568431 0.772812 -5.900311 -5.424719 -0.294839 -6.168722 -3.509538 -7.148115 -6.217868 1.587689 6.565794 -13.015469 -8.369774 -4.489154 -0.334616 -0.212419 0.000000 0.000000 0.000000 -1.083656 7.559036 0.663119 -55.056529 -8.477882 11.840347 -0.598394 -82.276278 -0.051797 8.606093 5.578680 0.414378 -0.215509 0.245245 -0.000000 0.000000 0.000000 0.000000 0.000000 0.000000 0.000000 16.077264 -11.829701 -0.596180 75.079899 1.910987 -20.951335 0.190118 62.891106 -0.110821 -32.023171 -0.468810 0.076344 0.280305 -0.207339 -0.000000 0.000000 0.000000 0.000000 0.000000 0.000000 0.000000 
2.172617 16.751781 1.028595 69.736740 80.250811 84.844796 0.452707 -5.818153 -5.458764 -0.369491 -6.061519 -3.500949 -7.140208 -6.111916 1.639047 6.747627 -12.816684 -8.242910 -4.453985 -0.333121 -0.174873 0.000000 0.000000 0.000000 -1.281211 7.618478 0.636352 -54.902841 -8.620337 11.706779 -0.656546 -81.098227 -0.052676 8.975388 5.664548 0.439213 -0.217395 0.236803 -0.000000 0.000000 0.000000 0.000000 0.000000 0.000000 0.000000 16.179406 -11.736668 -0.568013 75.400853 2.108574 -20.285973 0.183016 61.406902 -0.112196 -34.106732 -1.723696 0.475393 0.284314 -0.187246 -0.000000 0.000000 0.000000 0.000000 0.000000 0.000000 0.000000 
2.347576 16.787115 1.136335 69.058934 80.037555 84.222235 0.110365 -5.701919 -5.488497 -0.448751 -5.917892 -3.497762 -7.129080 -5.969435 1.663112 6.924173 -12.563800 -8.107572 -4.412333 -0.331208 -0.135580 0.000000 0.000000 0.000000 -1.506550 7.709310 0.640111 -54.625871 -8.707033 11.694053 -0.701499 -80.089200 -0.052120 9.087421 5.713772 0.449250 -0.217259 0.228490 -0.000000 0.000000 0.000000 0.000000 0.000000 0.000000 0.000000 16.237133 -11.516004 -0.545787 75.584647 2.260816 -19.206805 0.197741 59.974603 -0.110990 -35.338410 -2.708585 0.814765 0.284695 -0.170956 -0.000000 0.000000 0.000000 0.000000 0.000000 0.000000 0.000000 
2.519647 16.825522 1.243613 67.535807 79.754672 82.784905 -0.243449 -5.555405 -5.503906 -0.530281 -5.742190 -3.498835 -7.114552 -5.794866 1.657062 7.096080 -12.260028 -7.964819 -4.366623 -0.329045 -0.094937 0.000000 0.000000 0.000000 -1.757276 7.827294 0.675479 -54.235605 -8.732970 11.785723 -0.736053 -79.249889 -0.050302 8.949753 5.728982 0.444289 -0.215346 0.220333 -0.000000 0.000000 0.000000 0.000000 0.000000 0.000000 0.000000 16.265669 -11.173231 -0.533751 75.624139 2.395237 -17.742084 0.234317 58.592318 -0.107852 -35.670966 -3.337214 1.030358 0.282930 -0.159053 0.000000 0.000000 0.000000 0.000000 0.000000 0.000000 0.000000 
2.688694 16.866679 1.350186 65.314616 79.403931 80.671883 -0.601345 -5.383020 -5.497362 -0.612513 -5.539264 -3.502701 -7.096672 -5.593069 1.621177 7.265451 -11.911166 -7.816797 -4.318908 -0.326757 -0.053621 0.000000 0.000000 0.000000 -2.027051 7.969944 0.740879 -53.747544 -8.698550 11.967386 -0.762716 -78.573782 -0.047460 8.588386 5.711604 0.425930 -0.211968 0.212348 -0.000000 0.000000 0.000000 0.000000 0.000000 0.000000 0.000000 16.279995 -10.720186 -0.534176 75.521239 2.536711 -15.929713 0.291993 57.270798 -0.103151 -35.104559 -3.534055 1.078076 0.279783 -0.151820 -0.000000 0.000000 0.000000 0.000000 0.000000 0.000000 0.000000 
2.854767 16.910223 1.455917 62.571481 78.984861 78.052666 -0.958060 -5.189302 -5.465977 -0.694314 -5.314097 -3.508116 -7.075329 -5.369000 1.558710 7.434976 -11.526778 -7.666782 -4.270429 -0.324399 -0.012558 0.000000 0.000000 0.000000 -2.305833 8.134568 0.831755 -53.183106 -8.605247 12.225941 -0.783397 -78.049663 -0.043878 8.045687 5.662864 0.396474 -0.207475 0.204546 -0.000000 0.000000 0.000000 0.000000 0.000000 0.000000 0.000000 16.291070 -10.175571 -0.546598 75.285629 2.708269 -13.807655 0.369975 56.030651 -0.096984 -33.692520 -3.248449 0.946019 0.275135 -0.149329 -0.000000 0.000000 0.000000 0.000000 0.000000 0.000000 0.000000 
3.018133 16.955668 1.560850 59.486635 78.495997 75.102909 -1.311189 -4.978841 -5.410542 -0.775169 -5.071618 -3.513645 -7.050451 -5.127492 1.476727 7.607389 -11.125626 -7.520909 -4.221266 -0.321912 0.026598 0.000000 0.000000 0.000000 -2.582033 8.318162 0.940530 -52.565537 -8.454113 12.549181 -0.799118 -77.665284 -0.039854 7.374630 5.585658 0.359419 -0.202214 0.196906 0.000000 0.000000 0.000000 0.000000 0.000000 0.000000 0.000000 16.304375 -9.570201 -0.567343 74.935604 2.938357 -11.407317 0.467808 54.894746 -0.089280 -31.544649 -2.471915 0.661284 0.268198 -0.151432 -0.000000 0.000000 0.000000 0.000000 0.000000 0.000000 0.000000 
